<mxfile host="app.diagrams.net" agent="Mozilla/5.0 (Windows NT 10.0; Win64; x64) AppleWebKit/537.36 (KHTML, like Gecko) Chrome/136.0.0.0 Safari/537.36" version="27.0.1">
  <diagram name="Page-1" id="IfoPqhcr56yE_Qx8LRxW">
    <mxGraphModel dx="1042" dy="608" grid="1" gridSize="10" guides="1" tooltips="1" connect="1" arrows="1" fold="1" page="1" pageScale="1" pageWidth="827" pageHeight="1169" math="0" shadow="0">
      <root>
        <mxCell id="0" />
        <mxCell id="1" parent="0" />
        <mxCell id="fv0f_9SsGVs7R6cPssY1-1" value="Player&amp;nbsp;" style="rounded=0;whiteSpace=wrap;html=1;" vertex="1" parent="1">
          <mxGeometry x="130" y="120" width="120" height="60" as="geometry" />
        </mxCell>
        <mxCell id="fv0f_9SsGVs7R6cPssY1-2" value="Team" style="rounded=0;whiteSpace=wrap;html=1;" vertex="1" parent="1">
          <mxGeometry x="510" y="50" width="120" height="60" as="geometry" />
        </mxCell>
        <mxCell id="fv0f_9SsGVs7R6cPssY1-3" value="User" style="rounded=0;whiteSpace=wrap;html=1;" vertex="1" parent="1">
          <mxGeometry x="40" y="370" width="120" height="60" as="geometry" />
        </mxCell>
        <mxCell id="fv0f_9SsGVs7R6cPssY1-5" value="League" style="rounded=0;whiteSpace=wrap;html=1;" vertex="1" parent="1">
          <mxGeometry x="530" y="320" width="120" height="60" as="geometry" />
        </mxCell>
        <mxCell id="fv0f_9SsGVs7R6cPssY1-6" value="Season" style="rounded=0;whiteSpace=wrap;html=1;" vertex="1" parent="1">
          <mxGeometry x="360" y="410" width="120" height="60" as="geometry" />
        </mxCell>
        <mxCell id="fv0f_9SsGVs7R6cPssY1-7" value="Match" style="rounded=0;whiteSpace=wrap;html=1;" vertex="1" parent="1">
          <mxGeometry x="340" y="280" width="120" height="60" as="geometry" />
        </mxCell>
        <mxCell id="fv0f_9SsGVs7R6cPssY1-8" value="id" style="ellipse;whiteSpace=wrap;html=1;" vertex="1" parent="1">
          <mxGeometry x="50" y="200" width="70" height="50" as="geometry" />
        </mxCell>
        <mxCell id="fv0f_9SsGVs7R6cPssY1-11" value="name" style="ellipse;whiteSpace=wrap;html=1;" vertex="1" parent="1">
          <mxGeometry x="150" y="210" width="70" height="50" as="geometry" />
        </mxCell>
        <mxCell id="fv0f_9SsGVs7R6cPssY1-12" value="country" style="ellipse;whiteSpace=wrap;html=1;" vertex="1" parent="1">
          <mxGeometry x="240" y="210" width="70" height="50" as="geometry" />
        </mxCell>
        <mxCell id="fv0f_9SsGVs7R6cPssY1-13" value="" style="endArrow=none;html=1;rounded=0;entryX=0;entryY=0.5;entryDx=0;entryDy=0;" edge="1" parent="1" source="fv0f_9SsGVs7R6cPssY1-8" target="fv0f_9SsGVs7R6cPssY1-1">
          <mxGeometry width="50" height="50" relative="1" as="geometry">
            <mxPoint x="20" y="200" as="sourcePoint" />
            <mxPoint x="70" y="150" as="targetPoint" />
          </mxGeometry>
        </mxCell>
        <mxCell id="fv0f_9SsGVs7R6cPssY1-14" value="" style="endArrow=none;html=1;rounded=0;entryX=0.58;entryY=0.97;entryDx=0;entryDy=0;entryPerimeter=0;exitX=0.5;exitY=0;exitDx=0;exitDy=0;" edge="1" parent="1" source="fv0f_9SsGVs7R6cPssY1-11" target="fv0f_9SsGVs7R6cPssY1-1">
          <mxGeometry width="50" height="50" relative="1" as="geometry">
            <mxPoint x="180" y="250" as="sourcePoint" />
            <mxPoint x="230" y="200" as="targetPoint" />
          </mxGeometry>
        </mxCell>
        <mxCell id="fv0f_9SsGVs7R6cPssY1-15" value="" style="endArrow=none;html=1;rounded=0;entryX=1;entryY=0.5;entryDx=0;entryDy=0;exitX=0.5;exitY=0;exitDx=0;exitDy=0;" edge="1" parent="1" source="fv0f_9SsGVs7R6cPssY1-12" target="fv0f_9SsGVs7R6cPssY1-1">
          <mxGeometry width="50" height="50" relative="1" as="geometry">
            <mxPoint x="260" y="230" as="sourcePoint" />
            <mxPoint x="310" y="180" as="targetPoint" />
          </mxGeometry>
        </mxCell>
        <mxCell id="fv0f_9SsGVs7R6cPssY1-16" value="Team_Player" style="rhombus;whiteSpace=wrap;html=1;" vertex="1" parent="1">
          <mxGeometry x="334" y="40" width="80" height="80" as="geometry" />
        </mxCell>
        <mxCell id="fv0f_9SsGVs7R6cPssY1-17" value="" style="endArrow=none;html=1;rounded=0;entryX=0.07;entryY=0.638;entryDx=0;entryDy=0;entryPerimeter=0;exitX=1;exitY=0;exitDx=0;exitDy=0;" edge="1" parent="1" source="fv0f_9SsGVs7R6cPssY1-1" target="fv0f_9SsGVs7R6cPssY1-16">
          <mxGeometry width="50" height="50" relative="1" as="geometry">
            <mxPoint x="300" y="160" as="sourcePoint" />
            <mxPoint x="350" y="110" as="targetPoint" />
          </mxGeometry>
        </mxCell>
        <mxCell id="fv0f_9SsGVs7R6cPssY1-18" value="" style="endArrow=none;html=1;rounded=0;entryX=0;entryY=0.5;entryDx=0;entryDy=0;exitX=1;exitY=0.5;exitDx=0;exitDy=0;" edge="1" parent="1" source="fv0f_9SsGVs7R6cPssY1-16" target="fv0f_9SsGVs7R6cPssY1-2">
          <mxGeometry width="50" height="50" relative="1" as="geometry">
            <mxPoint x="420" y="150" as="sourcePoint" />
            <mxPoint x="470" y="100" as="targetPoint" />
          </mxGeometry>
        </mxCell>
        <mxCell id="fv0f_9SsGVs7R6cPssY1-19" value="" style="endArrow=none;html=1;rounded=0;exitX=0.663;exitY=0.1;exitDx=0;exitDy=0;exitPerimeter=0;" edge="1" parent="1" source="fv0f_9SsGVs7R6cPssY1-20" target="fv0f_9SsGVs7R6cPssY1-16">
          <mxGeometry width="50" height="50" relative="1" as="geometry">
            <mxPoint x="350" y="170" as="sourcePoint" />
            <mxPoint x="360" y="130" as="targetPoint" />
          </mxGeometry>
        </mxCell>
        <mxCell id="fv0f_9SsGVs7R6cPssY1-20" value="start" style="ellipse;whiteSpace=wrap;html=1;" vertex="1" parent="1">
          <mxGeometry x="310" y="170" width="70" height="50" as="geometry" />
        </mxCell>
        <mxCell id="fv0f_9SsGVs7R6cPssY1-24" value="end" style="ellipse;whiteSpace=wrap;html=1;" vertex="1" parent="1">
          <mxGeometry x="390" y="170" width="70" height="50" as="geometry" />
        </mxCell>
        <mxCell id="fv0f_9SsGVs7R6cPssY1-25" value="" style="endArrow=none;html=1;rounded=0;entryX=0.7;entryY=0.875;entryDx=0;entryDy=0;entryPerimeter=0;exitX=0;exitY=0;exitDx=0;exitDy=0;" edge="1" parent="1" source="fv0f_9SsGVs7R6cPssY1-24" target="fv0f_9SsGVs7R6cPssY1-16">
          <mxGeometry width="50" height="50" relative="1" as="geometry">
            <mxPoint x="490" y="200" as="sourcePoint" />
            <mxPoint x="540" y="150" as="targetPoint" />
          </mxGeometry>
        </mxCell>
      </root>
    </mxGraphModel>
  </diagram>
</mxfile>
